<svg version="1.0" xmlns="http://www.w3.org/2000/svg" width="149.333" height="161.333" viewBox="0 0 112 121"><g fill="#0f5b9e"><path d="M20.2 2.2c-.9.9-1.2 9.5-1.2 32.5V66h-8.5c-7.3 0-8.6.3-9.5 1.9-.5 1.1-.7 2.6-.4 3.5C1.7 74.1 54 121 56 121c2.1 0 54.3-46.7 55.4-49.6.3-.8.1-2.4-.4-3.5-.9-1.6-2.2-1.9-9.5-1.9H93V34.7c0-23-.3-31.6-1.2-32.5C90.1.5 21.9.5 20.2 2.2zM83.8 41l.2 31 2.5 1.6c1.5 1 3.7 1.4 5.5 1.2 1.7-.3 2.9-.1 2.8.3C94.3 76.2 56.9 110 56 110c-.8 0-38.3-33.8-38.8-34.9-.1-.4 1.4-.5 3.3-.3 2.5.3 4.2-.1 5.5-1.3 1.9-1.7 2-3.3 2-32.5 0-16.9.2-30.9.4-31.1.2-.2 12.7-.3 27.8-.2l27.3.2.3 31.1z"/><path d="M52 27.4c0 2.6-.5 3.6-2 4.1-2.9.9-6.8 6.1-7.5 9.9-.8 4.1 1.5 9.9 4.8 12.1 1.4.9 4.7 2.1 7.3 2.8 5.4 1.4 7.5 3.7 5.8 6.4-1.7 2.7-7 2.9-8.4.4-.8-1.6-2.1-2.1-5.5-2.1-2.5 0-4.5.2-4.5.5 0 2.4 3.4 7.7 6.4 10 2.4 1.8 3.6 3.6 3.6 5.1 0 2.2.4 2.4 4.3 2.4 4.2 0 4.3-.1 3.9-2.9-.3-2.4.2-3.2 3.1-5C67 68.8 70 63.8 70 59.8c0-3-3.2-8.3-6.4-10.3-1.4-.9-4.4-1.9-6.6-2.2-3.2-.5-4.4-1.2-5.3-3.1-1-2.1-.8-2.7 1.2-4.3 3-2.5 3.7-2.4 6.7.6 2.6 2.6 8.7 3.5 9.9 1.5 1.1-1.8-2.8-8.2-6.2-10.3-2.7-1.5-3.3-2.5-3.1-4.6.3-2.4 0-2.6-3.9-2.9-4.3-.3-4.3-.3-4.3 3.2z"/></g></svg>