<svg version="1.0" xmlns="http://www.w3.org/2000/svg" width="264" height="162.667" viewBox="0 0 198 122"><g fill="#0f5b9e"><path d="M31 1.1c-6.1 1.7-8 4.9-8 13.4v7.4l29 .3c28 .3 29 .4 31.1 2.4 1.3 1.3 2.3 3.9 2.6 6.6.4 3.7.1 4.9-2 7.4l-2.5 2.9-28.9.5-28.8.5-.3 3.6c-.4 4.8 0 4.9 22.8 4.9 20 .1 21 .3 23 5.6 1.6 4 .4 8.9-2.7 11.4-2.4 1.8-4 2-21.4 2-10.3 0-19.4.3-20.3.6-1.4.5-1.6 2.8-1.6 14.5 0 13 .1 13.9 2.3 16.5 2 2.3 3.4 2.8 8.4 3.2l6 .4.7-4.6c.4-2.5 2.1-6.6 3.9-9.3C55.4 75 81.2 81 83.9 100.5l.6 4 23.3.3 23.2.2v-2.8c0-4.8 5-13.4 9.8-16.7 5.8-4 15.8-4.8 21.8-1.7 7.2 3.7 12.4 11.3 12.4 18.2v3h8.1c7.6 0 8.2-.2 11-2.9l2.9-2.9V83.5c0-20.5-.5-21.7-9.7-24.4-3.7-1.1-7.8-2.8-9.1-3.7-1.2-.8-4.5-6.1-7.3-11.7s-5.9-11-6.8-12.1C161 28 156.6 26.5 148 26l-8.5-.5-.5-10c-.3-5.5-.9-10.6-1.4-11.4-2.5-3.9-5.8-4.1-55.3-4-27 0-49.3.5-51.3 1zm121.3 33.3c6.3 2.3 7.3 3.6 16.5 22.9.2.4-6.3.6-14.5.5l-14.8-.3-.3-10.9c-.1-6.1 0-11.6.2-12.3.7-1.7 7.9-1.6 12.9.1z"/><path d="M13.6 27.6c-1.9 1.8-2.1 7.5-.4 9.2 1.7 1.7 65.9 1.7 67.6 0 1.7-1.7 1.5-7.4-.4-9.2C79.1 26.2 74.6 26 47 26c-27.6 0-32.1.2-33.4 1.6zM2.8 55.1c-2.1 1.2-2.5 7.8-.6 9.7.9.9 9.3 1.2 31.5 1.2 28.9 0 30.3-.1 31.3-1.9 1.7-3.2 1.2-6.9-1.2-8.5C61.9 54.2 57.3 54 33 54c-17.5 0-29.2.5-30.2 1.1zm52.7 32.7C48.3 91.2 45 96.5 45 104.3c.1 11.9 13 20.1 24.3 15.3 6.7-2.7 11.6-11.8 10.3-18.9-2.1-11-14.3-17.5-24.1-12.9zm11.7 10.9c2.8 2.5 2.4 7.7-.8 10.2-3.5 2.7-5.9 2.6-8.9-.4s-3.1-5.4-.4-8.9c2.4-3.1 7.2-3.5 10.1-.9zM147 87.5c-7.3 3.3-11 8.7-11 16 0 12.4 11.4 20.5 23.3 16.6 7.1-2.4 12.7-12.2 11.2-19.4-2.3-10.8-14.1-17.4-23.5-13.2zM158 99c4.1 4.1.7 12-5.2 12-2.4 0-6.8-4.4-6.8-6.8 0-5.9 7.9-9.3 12-5.2z"/></g></svg>