<svg version="1.0" xmlns="http://www.w3.org/2000/svg" width="154.667" height="164" viewBox="0 0 116 123"><g fill="#0f5b9e"><path d="M49 1.4C38.8 3.7 30.9 9.1 26.6 16.9c-2.2 4.2-2.8 6.7-3.1 13.8-.3 5.8-.9 9.1-2 10.3-1.9 2.1-1.9 6.4.1 12.2 1.8 5.5 3.9 7.5 7.9 8 2.9.3 3 .5 2.7 4.7-.3 5.2-3.1 10.3-6.4 11.8-2.2 1-2.1 1.1 1.7 2.2 5.5 1.5 7.5 1.4 11.9-.8l3.8-2 4 3c7.9 5.6 13.7 5.6 21.6 0l4-3 3.8 2c4.4 2.2 6.3 2.3 11.9.8l3.9-1.1-2.5-1.4c-5.6-2.9-7.7-12.7-4.1-18.5 2.6-4.3 3.2-11.7 1.1-13.3-1.2-.8-1.5-3.3-1.5-10.6 0-7.9-.3-10.2-2.1-13.6-2.9-5.4-7-8.8-13.8-11.3-14-5.3-30.8-.1-36.8 11.3-1.7 3.3-2.1 5.8-2.2 13.3 0 5.1-.1 9.3-.2 9.3s-.9-1.4-1.7-3.2c-2.6-5-2.1-14.4 1-20.6 10.8-21.7 46-21.7 56.8 0 2.2 4.3 2.6 6.6 2.6 13.5 0 6.7.3 8.3 1.5 8.3 2.2 0 2.8-4.1 2-12.8-1.4-15.5-10.6-25.1-27-28.1-7.1-1.3-9.4-1.3-16.5.3zm29 29.3c3 4.5 3.1 5.3 2.7 11.6-.4 5.5-.2 6.5.9 5.6 1.8-1.5 3.4-.3 3.4 2.7 0 2.9-6.3 13.8-11.7 20.3C69 76.1 61.6 81 58 81c-3.1 0-10.4-4.5-14.5-9-2.3-2.6-2.6-3.1-1-2.5C53 73.5 59.4 74 61 70.9c.9-1.5.8-2.4-.1-3.5-1.4-1.7-7.2-1.9-9.8-.3-1.4 1-2.7.7-6.4-1.1-6.1-3-9.1-6.4-11.1-12.4-.9-2.7-1.6-5.3-1.6-5.8 0-1.3 2.8-.9 3.4.4.3.7.2-.5 0-2.7-.4-2.8-.2-4.4.8-5.1.7-.6 5.7-1.6 11.2-2.2C58.7 37 66.7 33.7 70 28.9c1.2-1.6 2.7-2.9 3.5-2.9.7 0 2.7 2.1 4.5 4.7z"/><path d="M23.4 88.8C8.8 93.6 4.7 96.5 2.7 102.7c-.9 2.6-1.9 8.3-2.3 12.5l-.6 7.8H116v-3.3c-.1-5.9-2-16.8-3.5-19.7-2.1-4-8.8-7.7-21.2-11.6-5.9-1.9-10.7-3.4-10.8-3.4-.2 0-.6 2-.9 4.5-1.2 7.5-7 17.7-13.7 23.9-3.3 3.1-6.8 5.6-7.8 5.6s-4.5-2.5-7.9-5.5c-6.8-6.2-12.6-16.3-13.8-24-.3-2.5-.9-4.5-1.3-4.4-.3 0-5.6 1.7-11.7 3.7z"/></g></svg>