<svg version="1.0" xmlns="http://www.w3.org/2000/svg" width="222.667" height="156" viewBox="0 0 167 117"><g fill="#0f5b9e"><path d="M7 1.5C5.9 2.8 6.3 3 9.6 3c3.6-.1 3.8-.2 2-1.5C9.1-.4 8.5-.4 7 1.5zM33.7 4c-5.4 4.3-5.2 13.4.4 17.4 5.2 3.6 14.7.4 16.2-5.4.4-1.6 0-2-1.9-2-3 0-8.9-2.4-9.9-4-.6-.9-.2-.9 1.4 0 2.8 1.5 14.4 1.5 17.2 0 1.9-1.1 2-1.4.7-2.7-.9-.8-3.5-1.7-5.9-2-2.4-.3-5.3-1.2-6.4-1.9-2.9-2.1-8.8-1.7-11.8.6zM0 15.7V27h23V4.5H0v11.2zM51.5 23c.3.5 1.3 1 2 1 .8 0 3 1.4 4.9 3.1 4.6 4 7.3 11.5 8.7 23.9l1.2 9.8 2.6-.9c5.7-2.2 13.6 2.2 14.8 8.3l.6 2.8h39.2l1.7-4c1.8-4.3 6.8-8 10.8-8 4 0 9 3.7 10.8 8 1.6 3.7 2 4 6 4h4.2V47.9l-7.2-13-7.2-12.9H97.8c-31 0-46.7.3-46.3 1zm96.4 13.4c2.8 5.1 5.1 9.6 5.1 10 0 .3-6.7.6-15 .6h-15V27h19.9l5 9.4zm-14.1 15.8c-.3.7-2.3 1.4-4.6 1.6-3.3.2-4.2 0-4.2-1.2s1.1-1.6 4.6-1.6c3.2 0 4.4.4 4.2 1.2z"/><path d="M24.4 28c-.5.5-5.4 1.1-10.9 1.2l-10 .3 4.4 2.3c2.9 1.6 6.8 2.6 11.7 2.9l7.4.6v38.8c0 37.6.1 39 2 40.9 1.1 1.1 2.9 2 4 2s2.9-.9 4-2c1.9-1.9 2-3.3 2-25.1 0-18 .3-23 1.3-22.7.9.4 1.3 6.1 1.5 23.3.2 19.5.5 23.2 1.9 24.7 2 2.2 4.2 2.3 7.1.2l2.2-1.5V76.2c0-23.5.4-37.2.9-36.6 1.5 1.4 3.1 13 3.1 22.5 0 9.6 1.2 12 4.9 9.9 1.9-1 2.1-2 2.1-12 0-16.5-2.7-26.3-8.6-30.9-2.4-1.9-4-2.1-16.3-2.1-7.6 0-14.1.4-14.7 1zm45.2 35.3c-1 .7-2.2 3.5-2.7 6.2-1.4 7.7 2.2 11.5 9.7 10.1 9.7-1.9 8.1-17.6-1.9-17.6-1.8 0-4.1.6-5.1 1.3zm8.2 3.9c1.5 1.5 1.5 6.1 0 7.6-2 2-5.6 1.4-7.4-1.3-1.5-2.3-1.5-2.7 0-5 1.8-2.7 5.4-3.3 7.4-1.3zm54.1-2.3c-2 2-2.9 3.9-2.9 6.1 0 4.3 4.7 9 9 9s9-4.7 9-9-4.7-9-9-9c-2.2 0-4.1.9-6.1 2.9zm9.3 2.8c2.2 2 2.3 4.1.1 6.5-2 2.2-4.6 2.3-6.7.2-3-2.9-.9-8.4 3.1-8.4.9 0 2.5.7 3.5 1.7z"/><path d="M56.5 83c.4.6 19.8 1 55.1 1 35.6 0 54.4-.3 54.4-1s-19-1-55.1-1c-36.4 0-54.8.3-54.4 1z"/></g></svg>