<svg xmlns="http://www.w3.org/2000/svg" viewBox="0 0 1000 1000"><path fill="#FFF" d="M959.9 227.5c16.6 0 30.1-13.2 30.1-29.4V111c0-16.2-13.5-29.5-30.1-29.5h-67.6V57.8c0-26.1-21.2-47.3-47.3-47.3H57.3C31.2 10.5 10 31.7 10 57.8v884.4c0 26 21.2 47.3 47.3 47.3H845c26.1 0 47.3-21.2 47.3-47.3v-24.6h67.6c16.6 0 30.1-13.2 30.1-29.4V801c0-16.2-13.5-29.5-30.1-29.5h-67.6v-84h67.6c16.6 0 30.1-13.2 30.1-29.4V571c0-16.2-13.5-29.5-30.1-29.5h-67.6v-84h67.6c16.6 0 30.1-13.2 30.1-29.4v-87.2c0-16.2-13.5-29.4-30.1-29.4h-67.6v-84h67.6zM682.7 701.7c0 17-11.9 30.8-26.5 30.8H245.7c-14.6 0-26.5-13.8-26.5-30.8V574.9c0-12.6 6.6-24 16.6-28.6l160.7-74.8c-38.1-23-64.1-69.1-64.1-122.4 0-76.2 53.1-137.9 118.5-137.9 65.5 0 118.6 61.7 118.6 137.9 0 52.5-25.2 98.1-62.3 121.5l159.1 75.9c9.9 4.8 16.4 16 16.4 28.6v126.6z"/></svg>